<svg
    xmlns="http://www.w3.org/2000/svg"
    viewBox="0 0 64 64"
    id="vector">
    <path
        id="path"
        d="M 43.5 23 C 44.163 23 44.799 23.264 45.268 23.732 C 45.736 24.201 46 24.837 46 25.5 C 46 26.163 45.736 26.799 45.268 27.268 C 44.799 27.736 44.163 28 43.5 28 L 42 28 L 42 23 Z M 20.5 23 L 22 23 L 22 28 L 20.5 28 C 19.837 28 19.201 27.736 18.732 27.268 C 18.264 26.799 18 26.163 18 25.5 C 18 24.837 18.264 24.201 18.732 23.732 C 19.201 23.264 19.837 23 20.5 23 Z"
        fill="#fad3ac"
        stroke-width="1"/>
    <path
        id="path_1"
        d="M 32 38 C 30.198 38 28.501 37.558 27 36.79 L 27 41 L 32 47 L 37 41 L 37 36.79 C 35.453 37.585 33.739 38 32 38 Z"
        fill="#fce0b9"
        stroke-width="1"/>
    <path
        id="path_2"
        d="M 44 38 L 44 59 C 44 59.53 44.211 60.039 44.586 60.414 C 44.961 60.789 45.47 61 46 61 L 61 61 L 61 40 L 46 40 C 45.47 40 44.961 39.789 44.586 39.414 C 44.211 39.039 44 38.53 44 38 Z"
        fill="#78af4f"
        stroke-width="1"/>
    <path
        id="path_3"
        d="M 8 7 L 6 7 C 6 8.06 6.422 9.079 7.172 9.828 C 7.921 10.578 8.94 11 10 11 L 12 11 C 12 9.94 11.578 8.921 10.828 8.172 C 10.079 7.422 9.06 7 8 7 Z M 7 17 L 5 17 C 5 18.06 5.422 19.079 6.172 19.828 C 6.921 20.578 7.94 21 9 21 L 11 21 C 11 19.94 10.578 18.921 9.828 18.172 C 9.079 17.422 8.06 17 7 17 Z M 17 12 L 15 12 C 13.94 12 12.921 12.422 12.172 13.172 C 11.422 13.921 11 14.94 11 16 L 13 16 C 14.06 16 15.079 15.578 15.828 14.828 C 16.578 14.079 17 13.06 17 12 Z"
        fill="#619c35"
        stroke-width="1"/>
    <path
        id="path_4"
        d="M 53.361 56.066 L 56.872 46.703 C 57.054 46.208 57.032 45.66 56.812 45.181 C 56.592 44.701 56.191 44.328 55.697 44.142 C 55.203 43.957 54.655 43.975 54.174 44.191 C 53.693 44.407 53.316 44.805 53.127 45.298 L 49.616 54.661 L 50.786 57.236 Z M 56.17 48.575 L 52.425 47.171 Z"
        fill="#cf5300"
        stroke-width="1"/>
    <path
        id="path_5"
        d="M 44 38 C 44 38.53 44.211 39.039 44.586 39.414 C 44.961 39.789 45.47 40 46 40 L 61 40 L 61 36 L 46 36 C 45.47 36 44.961 36.211 44.586 36.586 C 44.211 36.961 44 37.47 44 38 Z"
        fill="#ebe0d1"
        stroke-width="1"/>
    <path
        id="path_6"
        d="M 32.628 5.015 C 39.621 5.344 45 11.367 45 18.367 L 45 23 C 45 23.53 44.789 24.039 44.414 24.414 C 44.039 24.789 43.53 25 43 25 L 43 19 C 40.482 19 37.997 18.421 35.739 17.307 C 33.481 16.193 31.509 14.574 29.976 12.576 L 28 10 L 26.265 15.205 C 25.897 16.31 25.19 17.271 24.245 17.952 C 23.3 18.633 22.165 19 21 19 L 21 25 C 20.47 25 19.961 24.789 19.586 24.414 C 19.211 24.039 19 23.53 19 23 L 19 18 C 19 10.612 25.163 4.663 32.628 5.015 Z"
        fill="#331b0f"
        stroke-width="1"/>
    <path
        id="path_7"
        d="M 21 19 L 21 27 C 21 33.075 25.925 38 32 38 C 38.075 38 43 33.075 43 27 L 43 19 C 40.482 19 37.997 18.421 35.739 17.307 C 33.481 16.193 31.509 14.574 29.976 12.576 L 28 10 L 26.265 15.205 C 25.897 16.31 25.19 17.271 24.245 17.952 C 23.3 18.633 22.165 19 21 19 Z"
        fill="#fce0b9"
        stroke-width="1"/>
    <path
        id="path_8"
        d="M 29.976 12.576 L 28 10 L 26.265 15.205 C 25.897 16.31 25.19 17.271 24.245 17.952 C 23.3 18.633 22.165 19 21 19 C 21 12.925 25.925 8 32 8 C 38.075 8 43 12.925 43 19 C 40.482 19 37.997 18.421 35.739 17.307 C 33.481 16.193 31.509 14.574 29.976 12.576 Z"
        fill="#4d2817"
        stroke-width="1"/>
    <path
        id="path_9"
        d="M 32 38 C 33.802 38 35.499 37.558 37 36.79 L 37 38.79 C 35.453 39.584 33.739 39.999 32 39.999 C 30.261 39.999 28.547 39.584 27 38.79 L 27 36.79 C 28.547 37.585 30.261 38 32 38 Z"
        fill="#fad3ac"
        stroke-width="1"/>
    <path
        id="path_10"
        d="M 44 59 L 44 42.033 C 43.667 42.015 43.334 42.004 43 42 L 41 42 C 41 42 40 48 38 51 L 32 47 L 26 51 C 24 48 23 42 23 42 L 20 42 C 18.674 42 17.402 42.527 16.464 43.464 C 15.527 44.402 15 45.674 15 47 L 15 55 L 13 42 L 4 42 L 7 61 L 46 61 C 45.47 61 44.961 60.789 44.586 60.414 C 44.211 60.039 44 59.53 44 59 Z"
        fill="#ffffff"
        stroke-width="1"/>
    <path
        id="path_11"
        d="M 9 26 L 15 26 L 15 39 L 9 39 Z"
        fill="#71caf0"
        stroke-width="1"/>
    <path
        id="path_12"
        d="M 9 42 L 9 35 L 7 35 L 10 35 C 10.53 35 11.039 34.789 11.414 34.414 C 11.789 34.039 12 33.53 12 33 C 12 32.47 11.789 31.961 11.414 31.586 C 11.039 31.211 10.53 31 10 31 L 4 31 C 3.735 31 3.48 31.105 3.293 31.293 C 3.105 31.48 3 31.735 3 32 L 4.309 42 Z"
        fill="#fce0b9"
        stroke-width="1"/>
    <path
        id="path_13"
        d="M 12 33 C 12 33.53 12.211 34.039 12.586 34.414 C 12.961 34.789 13.47 35 14 35 L 17 35 C 17.265 35 17.52 34.895 17.707 34.707 C 17.895 34.52 18 34.265 18 34 L 18 32 C 18 31.735 17.895 31.48 17.707 31.293 C 17.52 31.105 17.265 31 17 31 L 14 31 C 13.47 31 12.961 31.211 12.586 31.586 C 12.211 31.961 12 32.47 12 33 Z"
        fill="#fce0b9"
        stroke-width="1"/>
    <path
        id="path_14"
        d="M 41 42 C 41 42 40 48 38 51 L 37.927 50.951 L 37.898 51 L 31.949 47.034 L 31.946 47.036 C 31.946 47.036 25.98 50.967 25.97 50.952 L 25.898 51 L 25.783 50.645 C 24.025 47.712 23.099 42.575 23.009 42.054 L 23 42 L 21.405 42 C 21.984 44.947 22.945 50.136 24.582 53.069 C 24.869 53.583 25.529 53.746 26.018 53.419 L 31.898 49.499 L 37.778 53.419 C 38.268 53.745 38.928 53.582 39.214 53.068 C 40.851 50.135 42.134 44.946 42.784 41.999 L 41 41.999 Z"
        fill="#ededed"
        stroke-width="1"/>
    <path
        id="path_15"
        d="M 41 42 L 37 39 L 37 41 L 32 47 L 38 51 C 40 48 41 42 41 42 Z M 27 39 L 23 42 C 23 42 24 48 26 51 L 32 47 L 27 41 Z"
        fill="#ffffff"
        stroke-width="1"/>
    <path
        id="path_16"
        d="M 49 59 C 48.47 59 47.961 58.789 47.586 58.414 C 47.211 58.039 47 57.53 47 57 L 47 40 L 46 40 C 45.47 40 44.961 39.789 44.586 39.414 C 44.211 39.039 44 38.53 44 38 L 44 59 C 44 59.53 44.211 60.039 44.586 60.414 C 44.961 60.789 45.47 61 46 61 L 61 61 L 61 59 Z"
        fill="#619c35"
        stroke-width="1"/>
    <path
        id="path_17"
        d="M 9 39 L 9 43 C 9 43.795 9.316 44.559 9.879 45.121 C 10.441 45.684 11.205 46 12 46 C 12.795 46 13.559 45.684 14.121 45.121 C 14.684 44.559 15 43.795 15 43 L 15 39 Z"
        fill="#78af4f"
        stroke-width="1"/>
    <path
        id="path_18"
        d="M 12 44 C 11.205 44 10.441 43.684 9.879 43.121 C 9.316 42.559 9 41.795 9 41 L 9 43 C 9 43.795 9.316 44.559 9.879 45.121 C 10.441 45.684 11.205 46 12 46 C 12.795 46 13.559 45.684 14.121 45.121 C 14.684 44.559 15 43.795 15 43 L 15 41 C 15 41.795 14.684 42.559 14.121 43.121 C 13.559 43.684 12.795 44 12 44 Z"
        fill="#619c35"
        stroke-width="1"/>
    <path
        id="path_19"
        d="M 44.412 14.432 C 45.534 13.52 46.346 12.283 46.736 10.892 C 47.127 9.5 47.077 8.021 46.594 6.659 C 46.11 5.297 45.217 4.117 44.036 3.283 C 42.856 2.449 41.445 2.001 40 2 C 38.834 2 37.687 2.291 36.663 2.848 C 35.638 3.404 34.769 4.208 34.135 5.186 C 39.067 6.02 42.985 9.714 44.412 14.432 Z"
        fill="#4d2817"
        stroke-width="1"/>
    <path
        id="path_20"
        d="M 10 11 L 12 11 L 12 26 L 10 26 Z"
        fill="#78af4f"
        stroke-width="1"/>
    <path
        id="path_21"
        d="M 27 25 C 26.735 25 26.48 25.158 26.293 25.439 C 26.105 25.721 26 26.102 26 26.5 C 26 26.898 26.105 27.279 26.293 27.561 C 26.48 27.842 26.735 28 27 28 C 27.265 28 27.52 27.842 27.707 27.561 C 27.895 27.279 28 26.898 28 26.5 C 28 26.102 27.895 25.721 27.707 25.439 C 27.52 25.158 27.265 25 27 25 Z M 37 25 C 36.735 25 36.48 25.158 36.293 25.439 C 36.105 25.721 36 26.102 36 26.5 C 36 26.898 36.105 27.279 36.293 27.561 C 36.48 27.842 36.735 28 37 28 C 37.265 28 37.52 27.842 37.707 27.561 C 37.895 27.279 38 26.898 38 26.5 C 38 26.102 37.895 25.721 37.707 25.439 C 37.52 25.158 37.265 25 37 25 Z"
        fill="#2b2210"
        stroke-width="1"/>
    <path
        id="path_22"
        d="M 32 36 C 31.006 35.999 30.052 35.603 29.35 34.9 C 28.647 34.198 28.251 33.244 28.25 32.25 L 29.75 32.25 C 29.75 33.491 30.759 34.5 32 34.5 C 33.241 34.5 34.25 33.491 34.25 32.25 L 35.75 32.25 C 35.749 33.244 35.353 34.198 34.65 34.9 C 33.948 35.603 32.994 35.999 32 36 Z"
        fill="#ff9575"
        stroke-width="1"/>
    <path
        id="path_23"
        d="M 27.5 26 C 27.367 26 27.24 26.053 27.146 26.146 C 27.053 26.24 27 26.367 27 26.5 C 27 26.633 27.053 26.76 27.146 26.854 C 27.24 26.947 27.367 27 27.5 27 C 27.633 27 27.76 26.947 27.854 26.854 C 27.947 26.76 28 26.633 28 26.5 C 28 26.367 27.947 26.24 27.854 26.146 C 27.76 26.053 27.633 26 27.5 26 Z M 37.5 26 C 37.367 26 37.24 26.053 37.146 26.146 C 37.053 26.24 37 26.367 37 26.5 C 37 26.633 37.053 26.76 37.146 26.854 C 37.24 26.947 37.367 27 37.5 27 C 37.633 27 37.76 26.947 37.854 26.854 C 37.947 26.76 38 26.633 38 26.5 C 38 26.367 37.947 26.24 37.854 26.146 C 37.76 26.053 37.633 26 37.5 26 Z"
        fill="#ffffff"
        stroke-width="1"/>
    <path
        id="path_24"
        d="M 17 20 L 15 20 C 13.94 20 12.921 20.422 12.172 21.172 C 11.422 21.921 11 22.94 11 24 L 13 24 C 14.06 24 15.079 23.578 15.828 22.828 C 16.578 22.079 17 21.06 17 20 Z"
        fill="#619c35"
        stroke-width="1"/>
</svg>
