<svg xmlns="http://www.w3.org/2000/svg" viewBox="0 0 512 512" id="vector">
    <path id="path"
        d="M 59.769 506.401 C 45.743 496.59 42.326 477.265 52.137 463.239 L 141.092 336.095 L 191.886 371.625 L 102.931 498.769 C 93.12 512.795 73.795 516.212 59.769 506.401 Z"
        fill="#4a66a0" stroke-width="1" />
    <path id="path_1"
        d="M 178.023 382.808 L 138.208 354.929 C 124.636 345.426 121.337 326.719 130.841 313.147 L 167.028 261.466 L 255.993 323.76 L 219.806 375.441 C 210.301 389.013 191.595 392.311 178.023 382.808 Z"
        fill="#ffce71" stroke-width="1" />
    <path id="path_2"
        d="M 433.178 280.81 C 397.272 332.088 339.277 358.711 281.054 356.805 C 247.621 355.734 214.105 345.245 184.659 324.629 C 103.935 268.096 84.308 156.834 140.84 76.11 C 171.285 32.621 217.618 6.874 266.495 1.197 C 308.367 -3.666 352.113 6.204 389.358 32.291 C 470.083 88.814 489.7 200.076 433.178 280.81 Z"
        fill="#687daa" stroke-width="1" />
    <path id="path_3"
        d="M 281.054 356.254 C 247.621 355.183 214.105 344.694 184.659 324.078 C 103.935 267.546 84.308 156.284 140.84 75.56 C 171.285 32.071 217.618 6.324 266.495 0.647 C 234.227 45.64 158.706 182.896 281.054 356.254 Z"
        fill="#4a66a0" stroke-width="1" />
    <path id="path_4"
        d="M 395.046 254.105 C 361.664 301.787 302.443 320.631 249.537 304.95 C 236.236 301.014 223.347 294.894 211.354 286.497 C 151.689 244.718 137.183 162.48 178.972 102.805 C 193.705 81.756 213.477 66.332 235.525 57.018 C 275.964 39.915 324.038 43.377 362.654 70.422 C 422.329 112.202 436.825 194.44 395.046 254.105 Z"
        fill="#deddf5" stroke-width="1" />
    <path id="path_5"
        d="M 249.537 304.95 C 236.236 301.014 223.347 294.894 211.354 286.497 C 151.689 244.718 137.183 162.48 178.972 102.805 C 193.705 81.756 213.477 66.332 235.525 57.018 C 211.694 113.994 196.569 201.251 249.537 304.95 Z"
        fill="#c7c4ea" stroke-width="1" />
    <g id="group">
        <path id="path_6"
            d="M 205.039 160.482 C 198.653 160.482 192.428 162.093 187.262 165.082 C 182.096 168.071 178.249 172.288 176.275 177.124 C 174.302 181.961 174.302 187.173 176.275 192.01 C 178.249 196.846 182.096 201.063 187.262 204.052 C 192.428 207.041 198.653 208.652 205.039 208.652 C 213.057 208.652 220.755 206.113 226.425 201.598 C 232.094 197.083 235.283 190.952 235.283 184.567 C 235.283 178.182 232.094 172.051 226.425 167.536 C 220.755 163.021 213.057 160.482 205.039 160.482 Z M 368.973 160.482 C 362.587 160.482 356.362 162.093 351.196 165.082 C 346.03 168.071 342.183 172.288 340.209 177.124 C 338.236 181.961 338.236 187.173 340.209 192.01 C 342.183 196.846 346.03 201.063 351.196 204.052 C 356.362 207.041 362.587 208.652 368.973 208.652 C 376.991 208.652 384.689 206.113 390.359 201.598 C 396.028 197.083 399.217 190.952 399.217 184.567 C 399.217 178.182 396.028 172.051 390.359 167.536 C 384.689 163.021 376.991 160.482 368.973 160.482 Z"
            fill="#ffa1ac" stroke-width="1" />
    </g>
    <path id="path_7"
        d="M 314.307 198.798 C 311.863 198.798 309.458 197.641 307.957 195.483 C 302.536 187.69 294.9 183.221 287.006 183.221 C 279.112 183.221 271.476 187.69 266.055 195.483 C 263.618 198.986 258.804 199.851 255.299 197.413 C 251.796 194.976 250.932 190.16 253.369 186.657 C 261.721 174.652 273.982 167.766 287.007 167.766 C 300.032 167.766 312.292 174.651 320.644 186.657 C 323.081 190.16 322.217 194.976 318.714 197.413 C 317.369 198.348 315.83 198.798 314.307 198.798 Z M 220.42 170.925 C 211.459 170.925 202.937 167.044 197.04 160.277 C 194.236 157.06 194.571 152.179 197.789 149.375 C 201.007 146.571 205.887 146.906 208.692 150.124 C 211.653 153.522 215.929 155.471 220.421 155.471 C 224.914 155.471 229.189 153.522 232.15 150.124 C 234.954 146.906 239.835 146.571 243.052 149.375 C 246.27 152.179 246.605 157.06 243.801 160.277 C 237.904 167.044 229.382 170.925 220.42 170.925 Z M 353.592 170.925 C 344.631 170.925 336.109 167.044 330.212 160.277 C 327.408 157.06 327.743 152.179 330.961 149.375 C 334.179 146.571 339.059 146.906 341.864 150.124 C 344.825 153.522 349.101 155.471 353.593 155.471 C 358.086 155.471 362.362 153.522 365.323 150.124 C 368.127 146.906 373.008 146.571 376.226 149.375 C 379.443 152.179 379.778 157.06 376.975 160.277 C 371.076 167.044 362.553 170.925 353.592 170.925 Z"
        fill="#495560" stroke-width="1" />
</svg>
