<svg
    xmlns="http://www.w3.org/2000/svg"
    viewBox="0 0 96 96"
    id="vector">
    <g id="group">
        <path
            id="path"
            d="M 83.49 91.75 L 81.17 93 C 78.638 94.352 75.745 94.88 72.898 94.509 C 70.052 94.138 67.391 92.886 65.29 90.93 L 54.59 81 L 75.26 58.73 L 96 78 Z"
            fill="#fb9c88"
            stroke-width="1"/>
        <path
            id="path_1"
            d="M 37.53 1.4 L 79.36 1.4 C 80.365 1.4 81.329 1.8 82.04 2.51 C 82.75 3.221 83.15 4.185 83.15 5.19 L 83.15 80.68 C 83.15 81.685 82.75 82.649 82.04 83.36 C 81.329 84.07 80.365 84.47 79.36 84.47 L 37.53 84.47 C 36.525 84.47 35.561 84.07 34.85 83.36 C 34.14 82.649 33.74 81.685 33.74 80.68 L 33.74 5.19 C 33.74 4.185 34.14 3.221 34.85 2.51 C 35.561 1.8 36.525 1.4 37.53 1.4"
            fill="#52527b"
            stroke-width="1"/>
        <path
            id="path_2"
            d="M 37.85 6.65 C 37.852 6.45 37.906 6.254 38.008 6.081 C 38.109 5.909 38.254 5.766 38.429 5.668 C 38.603 5.569 38.8 5.518 39 5.52 L 68.3 5.52 C 68.846 5.52 69.37 5.303 69.757 4.917 C 70.143 4.53 70.36 4.006 70.36 3.46 C 70.36 2.914 70.143 2.39 69.757 2.003 C 69.37 1.617 68.846 1.4 68.3 1.4 L 37.52 1.4 C 36.857 1.398 36.205 1.571 35.631 1.902 C 35.056 2.232 34.579 2.708 34.247 3.282 C 33.915 3.856 33.74 4.507 33.74 5.17 L 33.74 18.56 C 33.741 19.083 33.942 19.586 34.3 19.966 C 34.658 20.347 35.148 20.577 35.67 20.61 C 36.044 20.634 36.418 20.554 36.75 20.381 C 37.083 20.207 37.361 19.945 37.555 19.624 C 37.749 19.303 37.851 18.935 37.85 18.56 Z"
            fill="#5275b7"
            stroke-width="1"/>
        <path
            id="path_3"
            d="M 37.52 1.4 C 36.857 1.398 36.205 1.571 35.631 1.902 C 35.056 2.232 34.579 2.708 34.247 3.282 C 33.915 3.856 33.74 4.507 33.74 5.17 L 33.74 9.55 C 33.776 10.07 34.009 10.557 34.39 10.913 C 34.771 11.269 35.274 11.467 35.795 11.467 C 36.316 11.467 36.819 11.269 37.2 10.913 C 37.581 10.557 37.814 10.07 37.85 9.55 L 37.85 6.65 C 37.852 6.45 37.906 6.254 38.008 6.081 C 38.109 5.909 38.254 5.766 38.429 5.668 C 38.603 5.569 38.8 5.518 39 5.52 L 51.45 5.52 C 51.996 5.52 52.52 5.303 52.907 4.917 C 53.293 4.53 53.51 4.006 53.51 3.46 C 53.51 2.914 53.293 2.39 52.907 2.003 C 52.52 1.617 51.996 1.4 51.45 1.4 Z"
            fill="#5ca2da"
            stroke-width="1"/>
        <path
            id="path_4"
            d="M 79 79.22 C 78.997 79.52 78.876 79.808 78.663 80.02 C 78.449 80.231 78.161 80.35 77.86 80.35 L 53 80.35 C 52.454 80.35 51.93 80.567 51.543 80.953 C 51.157 81.34 50.94 81.864 50.94 82.41 C 50.94 82.956 51.157 83.48 51.543 83.867 C 51.93 84.253 52.454 84.47 53 84.47 L 79.38 84.47 C 80.379 84.47 81.339 84.073 82.046 83.366 C 82.753 82.659 83.15 81.699 83.15 80.7 L 83.15 39.4 C 83.15 38.854 82.933 38.33 82.547 37.943 C 82.16 37.557 81.636 37.34 81.09 37.34 C 80.544 37.34 80.02 37.557 79.633 37.943 C 79.247 38.33 79.03 38.854 79.03 39.4 Z"
            fill="#393462"
            stroke-width="1"/>
        <path
            id="path_5"
            d="M 79.03 6.66 L 79.03 79.22 C 79.03 79.522 78.91 79.812 78.696 80.026 C 78.482 80.24 78.192 80.36 77.89 80.36 L 38.99 80.36 C 38.688 80.36 38.398 80.24 38.184 80.026 C 37.97 79.812 37.85 79.522 37.85 79.22 L 37.85 6.66 C 37.85 6.358 37.97 6.068 38.184 5.854 C 38.398 5.64 38.688 5.52 38.99 5.52 L 77.89 5.52 C 78.192 5.52 78.482 5.64 78.696 5.854 C 78.91 6.068 79.03 6.358 79.03 6.66"
            fill="#a8d1ff"
            stroke-width="1"/>
        <path
            id="path_6"
            d="M 76.05 12.42 L 76.05 42.08 L 71.84 43.87 C 70.7 44.358 69.694 45.115 68.91 46.076 C 68.127 47.037 67.588 48.175 67.34 49.39 L 65.87 56.66 C 65.575 58.124 64.782 59.441 63.626 60.386 C 62.471 61.332 61.023 61.85 59.53 61.85 L 55.77 61.85 C 54.317 61.842 52.907 61.345 51.77 60.44 L 43.42 53.76 C 42.626 53.128 41.985 52.325 41.545 51.411 C 41.105 50.497 40.878 49.495 40.88 48.48 L 40.88 12.6 C 40.843 11.754 41.081 10.919 41.557 10.219 C 42.033 9.52 42.723 8.992 43.523 8.716 C 44.323 8.439 45.191 8.429 45.998 8.685 C 46.804 8.942 47.507 9.452 48 10.14 C 48.594 11.063 49.416 11.818 50.386 12.331 C 51.356 12.844 52.443 13.099 53.54 13.07 L 63.43 13.07 C 64.528 13.097 65.616 12.842 66.587 12.329 C 67.559 11.816 68.383 11.062 68.98 10.14 C 69.468 9.481 70.151 8.991 70.932 8.74 C 71.713 8.49 72.553 8.49 73.333 8.742 C 74.114 8.994 74.796 9.484 75.284 10.144 C 75.771 10.804 76.039 11.6 76.05 12.42 Z"
            fill="#ffffff"
            stroke-width="1"/>
        <path
            id="path_7"
            d="M 79.12 69.93 L 79.12 79.22 C 79.12 79.518 79.002 79.804 78.793 80.016 C 78.583 80.227 78.298 80.347 78 80.35 L 39 80.35 C 38.801 80.352 38.604 80.301 38.431 80.202 C 38.257 80.103 38.113 79.96 38.013 79.788 C 37.913 79.615 37.86 79.419 37.86 79.22 L 37.86 72.94 L 40.27 60.05 C 40.82 57.35 42.085 54.846 43.932 52.801 C 45.778 50.756 48.14 49.242 50.77 48.42 C 52.131 48.001 53.546 47.786 54.97 47.78 L 63.27 47.78 C 65.836 47.934 68.325 48.724 70.51 50.079 C 72.695 51.433 74.51 53.31 75.79 55.54 C 77.29 58.28 77.31 59.8 79.12 69.93 Z"
            fill="#e6e7e8"
            stroke-width="1"/>
        <path
            id="path_8"
            d="M 69.08 49.8 L 73.94 72.13 L 79.03 72.13 L 79.03 54.72 Z"
            fill="#bcbec0"
            stroke-width="1"/>
        <path
            id="path_9"
            d="M 48.24 75.37 C 47.344 75.371 46.468 75.11 45.718 74.62 C 44.969 74.13 44.378 73.432 44.02 72.611 C 43.661 71.791 43.55 70.883 43.7 70 L 45.17 61 C 45.388 59.681 45.885 58.424 46.628 57.314 C 47.371 56.203 48.344 55.264 49.48 54.56 L 50.09 54.18 C 51.563 53.259 53.263 52.768 55 52.76 L 62.69 52.76 C 64.432 52.764 66.139 53.252 67.62 54.17 C 69.226 55.065 70.55 56.392 71.44 58 C 71.929 58.909 72.267 59.892 72.44 60.91 L 74.07 70 C 74.228 70.886 74.124 71.799 73.768 72.626 C 73.413 73.452 72.823 74.157 72.072 74.652 C 71.32 75.147 70.44 75.41 69.54 75.41 Z"
            fill="#ffffff"
            stroke-width="1"/>
        <path
            id="path_10"
            d="M 75.1 79.61 C 75.14 79.871 75.075 80.137 74.92 80.35 L 73.31 80.35 C 73.11 80.09 73.2 80.35 72.2 74.13 C 71.29 68.55 71.32 68.73 70.97 66.47 C 70.93 66.205 70.996 65.935 71.155 65.719 C 71.313 65.504 71.551 65.359 71.815 65.318 C 72.08 65.277 72.35 65.343 72.567 65.501 C 72.783 65.658 72.928 65.896 72.97 66.16 C 73.47 69.47 72.85 65.74 75.1 79.61 Z"
            fill="#3e3962"
            stroke-width="1"/>
        <path
            id="path_11"
            d="M 54.59 48.15 L 58.82 63.39 L 63.05 48.15 Z"
            fill="#a8d1ff"
            stroke-width="1"/>
        <path
            id="path_12"
            d="M 63 48.15 C 62.361 49.056 61.448 49.732 60.396 50.08 C 59.343 50.427 58.207 50.427 57.154 50.08 C 56.102 49.732 55.189 49.056 54.55 48.15 L 54.55 42 L 63 42 Z"
            fill="#fb9c88"
            stroke-width="1"/>
        <path
            id="path_13"
            d="M 45.89 13.36 L 57.37 13.36 C 59.048 13.36 60.659 14.027 61.846 15.214 C 63.033 16.401 63.7 18.012 63.7 19.69 L 63.7 29.84 L 48.78 29.84 C 48.022 29.84 47.294 29.542 46.754 29.011 C 46.214 28.48 45.903 27.757 45.89 27 L 45.89 13.36 Z M 69.16 29.84 L 65.82 29.84 C 65.449 29.842 65.084 29.745 64.763 29.56 C 64.441 29.375 64.175 29.109 63.99 28.787 C 63.805 28.466 63.708 28.101 63.71 27.73 L 63.71 17.22 C 63.71 16.197 64.117 15.214 64.841 14.491 C 65.564 13.767 66.547 13.36 67.57 13.36 C 68.706 13.363 69.795 13.816 70.597 14.62 C 71.399 15.424 71.85 16.514 71.85 17.65 L 71.85 27.15 C 71.852 27.623 71.728 28.087 71.493 28.497 C 71.257 28.907 70.917 29.247 70.507 29.483 C 70.097 29.718 69.633 29.842 69.16 29.84 Z"
            fill="#52527b"
            stroke-width="1"/>
        <path
            id="path_14"
            d="M 46.36 29.84 L 71.28 29.84 C 71.884 29.84 72.465 30.08 72.892 30.508 C 73.32 30.935 73.56 31.516 73.56 32.12 L 73.56 32.13 C 73.56 32.734 73.32 33.315 72.892 33.742 C 72.465 34.17 71.884 34.41 71.28 34.41 L 46.36 34.41 C 45.756 34.41 45.175 34.17 44.748 33.742 C 44.32 33.315 44.08 32.734 44.08 32.13 L 44.08 32.12 C 44.08 31.72 44.185 31.327 44.385 30.98 C 44.586 30.633 44.873 30.346 45.22 30.145 C 45.567 29.945 45.96 29.84 46.36 29.84"
            fill="#fb9c88"
            stroke-width="1"/>
        <path
            id="path_15"
            d="M 69.43 29 L 69.43 33.92 C 69.345 36.678 68.189 39.297 66.208 41.218 C 64.228 43.139 61.574 44.214 58.815 44.214 C 56.056 44.214 53.402 43.139 51.422 41.218 C 49.441 39.297 48.285 36.678 48.2 33.92 L 48.2 29 C 48.285 26.242 49.441 23.623 51.422 21.702 C 53.402 19.781 56.056 18.706 58.815 18.706 C 61.574 18.706 64.228 19.781 66.208 21.702 C 68.189 23.623 69.345 26.242 69.43 29 Z"
            fill="#fb9c88"
            stroke-width="1"/>
        <path
            id="path_16"
            d="M 69.43 32.72 L 69.43 33.92 C 69.345 36.678 68.189 39.297 66.208 41.218 C 64.228 43.139 61.574 44.214 58.815 44.214 C 56.056 44.214 53.402 43.139 51.422 41.218 C 49.441 39.297 48.285 36.678 48.2 33.92 L 48.2 32.72 C 48.285 29.962 49.441 27.343 51.422 25.422 C 53.402 23.501 56.056 22.426 58.815 22.426 C 61.574 22.426 64.228 23.501 66.208 25.422 C 68.189 27.343 69.345 29.962 69.43 32.72 Z"
            fill="#fbc4ab"
            stroke-width="1"/>
        <path
            id="path_17"
            d="M 61.6 38.53 C 60.828 39.202 59.839 39.573 58.815 39.573 C 57.791 39.573 56.802 39.202 56.03 38.53"
            fill="#ffffff"
            stroke-width="1"/>
        <path
            id="path_18"
            d="M 55.37 39.28 C 55.198 39.099 55.1 38.861 55.095 38.612 C 55.089 38.363 55.177 38.12 55.341 37.933 C 55.505 37.745 55.733 37.625 55.981 37.597 C 56.229 37.569 56.478 37.634 56.68 37.78 C 57.28 38.278 58.035 38.551 58.815 38.551 C 59.595 38.551 60.35 38.278 60.95 37.78 C 61.104 37.618 61.309 37.512 61.53 37.48 C 61.751 37.448 61.977 37.491 62.171 37.602 C 62.366 37.713 62.517 37.886 62.601 38.094 C 62.685 38.301 62.697 38.531 62.635 38.746 C 62.574 38.961 62.441 39.149 62.26 39.28 C 61.305 40.111 60.081 40.568 58.815 40.568 C 57.549 40.568 56.325 40.111 55.37 39.28 Z M 63 32.73 C 62.735 32.73 62.48 32.625 62.293 32.437 C 62.105 32.25 62 31.995 62 31.73 L 62 31.26 C 62 30.995 62.105 30.74 62.293 30.553 C 62.48 30.365 62.735 30.26 63 30.26 C 63.265 30.26 63.52 30.365 63.707 30.553 C 63.895 30.74 64 30.995 64 31.26 L 64 31.73 C 64 31.995 63.895 32.25 63.707 32.437 C 63.52 32.625 63.265 32.73 63 32.73 Z M 64.09 29.72 L 62 29.72 C 61.735 29.72 61.48 29.615 61.293 29.427 C 61.105 29.24 61 28.985 61 28.72 C 61 28.455 61.105 28.2 61.293 28.013 C 61.48 27.825 61.735 27.72 62 27.72 L 64.14 27.72 C 64.405 27.72 64.66 27.825 64.847 28.013 C 65.035 28.2 65.14 28.455 65.14 28.72 C 65.14 28.985 65.035 29.24 64.847 29.427 C 64.66 29.615 64.405 29.72 64.14 29.72 Z M 54.61 32.73 C 54.345 32.73 54.09 32.625 53.903 32.437 C 53.715 32.25 53.61 31.995 53.61 31.73 L 53.61 31.26 C 53.61 30.995 53.715 30.74 53.903 30.553 C 54.09 30.365 54.345 30.26 54.61 30.26 C 54.875 30.26 55.13 30.365 55.317 30.553 C 55.505 30.74 55.61 30.995 55.61 31.26 L 55.61 31.73 C 55.61 31.995 55.505 32.25 55.317 32.437 C 55.13 32.625 54.875 32.73 54.61 32.73 Z M 55.68 29.72 L 53.54 29.72 C 53.275 29.72 53.02 29.615 52.833 29.427 C 52.645 29.24 52.54 28.985 52.54 28.72 C 52.54 28.455 52.645 28.2 52.833 28.013 C 53.02 27.825 53.275 27.72 53.54 27.72 L 55.68 27.72 C 55.945 27.72 56.2 27.825 56.387 28.013 C 56.575 28.2 56.68 28.455 56.68 28.72 C 56.68 28.985 56.575 29.24 56.387 29.427 C 56.2 29.615 55.945 29.72 55.68 29.72 Z"
            fill="#302d3d"
            stroke-width="1"/>
        <path
            id="path_19"
            d="M 55.57 17.24 C 56.301 17.97 56.826 18.88 57.094 19.877 C 57.361 20.875 57.361 21.925 57.094 22.923 C 56.826 23.92 56.301 24.83 55.57 25.56 L 50 20"
            fill="#52527b"
            stroke-width="1"/>
        <path
            id="path_20"
            d="M 48.84 67.07 C 48.5 69.16 48.84 66.95 46.84 80.35 L 44.84 80.35 C 44.84 80.22 44.7 81.19 46.84 66.75 C 46.883 66.486 47.03 66.249 47.247 66.092 C 47.464 65.935 47.735 65.871 47.999 65.913 C 48.264 65.955 48.501 66.101 48.659 66.318 C 48.816 66.535 48.881 66.805 48.84 67.07 Z M 50.64 53.91 C 50.759 52.677 51.155 51.487 51.8 50.429 C 52.444 49.37 53.319 48.472 54.36 47.8 C 53.142 47.85 51.935 48.059 50.77 48.42 C 49.55 49.992 48.817 51.887 48.66 53.87 C 47.879 54.109 47.21 54.622 46.775 55.312 C 46.34 56.003 46.167 56.828 46.288 57.636 C 46.409 58.443 46.816 59.181 47.435 59.714 C 48.053 60.247 48.843 60.54 49.66 60.54 C 50.477 60.54 51.267 60.247 51.885 59.714 C 52.504 59.181 52.911 58.443 53.032 57.636 C 53.153 56.828 52.98 56.003 52.545 55.312 C 52.11 54.622 51.441 54.109 50.66 53.87 Z M 49.64 58.54 C 49.316 58.554 48.996 58.456 48.736 58.263 C 48.475 58.07 48.288 57.793 48.206 57.479 C 48.124 57.165 48.152 56.832 48.286 56.537 C 48.419 56.241 48.65 56 48.94 55.854 C 49.23 55.707 49.561 55.665 49.878 55.733 C 50.196 55.801 50.48 55.976 50.684 56.228 C 50.888 56.481 51 56.795 51 57.12 C 51 57.495 50.852 57.855 50.588 58.121 C 50.324 58.386 49.965 58.537 49.59 58.54 Z M 71.62 56.16 L 71.62 58.36 C 71.62 58.625 71.515 58.88 71.327 59.067 C 71.14 59.255 70.885 59.36 70.62 59.36 C 70.355 59.36 70.1 59.255 69.913 59.067 C 69.725 58.88 69.62 58.625 69.62 58.36 L 69.62 56.16 C 69.62 56.042 69.574 55.929 69.492 55.845 C 69.41 55.761 69.298 55.713 69.18 55.71 L 66.9 55.71 C 66.782 55.713 66.67 55.761 66.588 55.845 C 66.506 55.929 66.46 56.042 66.46 56.16 L 66.46 58.36 C 66.46 58.625 66.355 58.88 66.167 59.067 C 65.98 59.255 65.725 59.36 65.46 59.36 C 65.195 59.36 64.94 59.255 64.753 59.067 C 64.565 58.88 64.46 58.625 64.46 58.36 L 64.46 56.16 C 64.458 55.72 64.575 55.287 64.8 54.908 C 65.024 54.529 65.348 54.219 65.735 54.009 C 66.123 53.8 66.56 53.7 67 53.72 C 66.856 52.521 66.448 51.368 65.807 50.345 C 65.166 49.322 64.306 48.453 63.29 47.8 C 64.509 47.849 65.715 48.058 66.88 48.42 C 68.073 49.951 68.808 51.789 69 53.72 L 69.22 53.72 C 69.86 53.73 70.471 53.992 70.92 54.449 C 71.368 54.905 71.62 55.52 71.62 56.16 Z"
            fill="#3e3962"
            stroke-width="1"/>
        <path
            id="path_21"
            d="M 63.39 10.08 L 53.51 10.08 C 52.8 10.081 52.103 9.888 51.495 9.521 C 50.887 9.155 50.39 8.629 50.06 8 L 48.75 5.52 L 68.14 5.52 L 66.83 8 C 66.5 8.627 66.006 9.152 65.4 9.519 C 64.793 9.885 64.098 10.079 63.39 10.08 Z"
            fill="#52527b"
            stroke-width="1"/>
        <path
            id="path_22"
            d="M 78.84 89 L 77.67 87.45 C 75.767 84.936 74.49 82.005 73.944 78.899 C 73.398 75.794 73.599 72.602 74.53 69.59 L 76.92 61.89 C 77.076 61.397 77.102 60.871 76.995 60.365 C 76.888 59.858 76.652 59.388 76.31 59 L 70.37 52.2 C 69.397 51.095 68.859 49.672 68.859 48.2 C 68.859 46.728 69.397 45.305 70.37 44.2 C 70.564 43.978 70.815 43.813 71.095 43.722 C 71.376 43.631 71.676 43.617 71.963 43.681 C 72.251 43.746 72.516 43.887 72.73 44.09 L 83.73 54.56 C 86.875 57.558 88.743 61.659 88.94 66 L 89.14 70 C 89.178 70.811 89.387 71.605 89.754 72.328 C 90.122 73.052 90.638 73.69 91.27 74.2 L 96 78 Z"
            fill="#fbc4ab"
            stroke-width="1"/>
        <path
            id="path_23"
            d="M 88.93 65.74 L 86.43 65.12 C 85.82 64.968 85.26 64.66 84.805 64.227 C 84.349 63.795 84.013 63.251 83.83 62.65 L 82.26 57.49 C 82.07 56.856 81.706 56.288 81.21 55.85 L 70.54 46.38 C 70.242 46.123 70.057 45.759 70.023 45.367 C 69.989 44.974 70.11 44.584 70.36 44.28 C 70.553 44.054 70.803 43.885 71.084 43.791 C 71.365 43.696 71.667 43.68 71.957 43.743 C 72.247 43.806 72.514 43.947 72.73 44.15 L 83.73 54.62 C 86.798 57.541 88.656 61.513 88.93 65.74 Z"
            fill="#fbe7dd"
            stroke-width="1"/>
        <path
            id="path_24"
            d="M 96 78 L 78.85 89 L 77.68 87.45 C 75.779 84.935 74.502 82.004 73.956 78.899 C 73.41 75.794 73.61 72.603 74.54 69.59 L 76.93 61.89 C 77.086 61.397 77.112 60.871 77.005 60.365 C 76.898 59.858 76.662 59.388 76.32 59 L 78.5 61.49 C 79.54 62.665 80.079 64.203 80 65.77 L 79.59 73 C 79.565 73.597 79.711 74.19 80.009 74.708 C 80.308 75.226 80.748 75.649 81.277 75.927 C 81.806 76.205 82.404 76.328 83 76.28 L 85.08 76.14 C 85.667 76.099 86.231 75.898 86.711 75.557 C 87.191 75.217 87.568 74.751 87.8 74.21 L 89.28 70.82 C 89.545 72.126 90.251 73.303 91.28 74.15 Z"
            fill="#fb9c88"
            stroke-width="1"/>
        <path
            id="path_25"
            d="M 22.45 60.58 L 22.45 58.16 C 22.44 57.585 22.204 57.037 21.795 56.634 C 21.386 56.23 20.835 56.003 20.26 56 L 2.26 56 C 1.872 55.989 1.487 56.082 1.146 56.268 C 0.805 56.454 0.519 56.727 0.318 57.059 C 0.117 57.392 0.007 57.772 0 58.16 L 0 75.67 C 0 76.251 0.231 76.808 0.641 77.219 C 1.052 77.629 1.609 77.86 2.19 77.86 L 20.19 77.86 C 20.771 77.86 21.328 77.629 21.739 77.219 C 22.149 76.808 22.38 76.251 22.38 75.67 L 22.38 69.52 L 29.77 60.58 Z"
            fill="#49d293"
            stroke-width="1"/>
        <path
            id="path_26"
            d="M 3 73.58 L 3 60.24 C 3.013 59.905 3.156 59.588 3.399 59.356 C 3.641 59.125 3.965 58.997 4.3 59 L 18.17 59 C 18.512 59 18.84 59.136 19.082 59.378 C 19.324 59.62 19.46 59.948 19.46 60.29 L 19.46 62.29 C 19.46 62.632 19.596 62.96 19.838 63.202 C 20.08 63.444 20.408 63.58 20.75 63.58 C 21.078 63.579 21.395 63.703 21.634 63.927 C 21.874 64.151 22.02 64.458 22.041 64.786 C 22.063 65.113 21.959 65.437 21.75 65.69 C 19.65 68.23 19.46 68.3 19.46 68.92 L 19.46 73.59 C 19.46 73.932 19.324 74.26 19.082 74.502 C 18.84 74.744 18.512 74.88 18.17 74.88 L 4.3 74.88 C 4.071 74.882 3.846 74.823 3.648 74.709 C 3.45 74.595 3.285 74.43 3.171 74.232 C 3.057 74.034 2.998 73.809 3 73.58 Z"
            fill="#8af0b1"
            stroke-width="1"/>
        <path
            id="path_27"
            d="M 22.45 33.91 L 22.45 36.34 C 22.45 36.921 22.219 37.478 21.809 37.889 C 21.398 38.299 20.841 38.53 20.26 38.53 L 2.26 38.53 C 1.868 38.543 1.479 38.449 1.135 38.26 C 0.791 38.071 0.505 37.793 0.305 37.456 C 0.105 37.118 0 36.732 0 36.34 L 0 18.83 C 0 18.248 0.231 17.69 0.641 17.278 C 1.051 16.866 1.608 16.633 2.19 16.63 L 20.19 16.63 C 20.772 16.633 21.329 16.866 21.739 17.278 C 22.149 17.69 22.38 18.248 22.38 18.83 L 22.38 25 L 29.77 33.94 Z"
            fill="#ffa946"
            stroke-width="1"/>
        <path
            id="path_28"
            d="M 3 34.25 L 3 20.91 C 3 20.682 3.06 20.459 3.174 20.262 C 3.289 20.065 3.453 19.902 3.651 19.789 C 3.848 19.677 4.072 19.618 4.3 19.62 L 18.17 19.62 C 18.512 19.62 18.84 19.756 19.082 19.998 C 19.324 20.24 19.46 20.568 19.46 20.91 C 19.46 26.01 19.36 25.91 19.76 26.41 L 21.76 28.81 C 21.967 29.065 22.07 29.389 22.048 29.716 C 22.027 30.044 21.882 30.351 21.643 30.576 C 21.404 30.801 21.088 30.928 20.76 30.93 C 20.418 30.93 20.09 31.066 19.848 31.308 C 19.606 31.55 19.47 31.878 19.47 32.22 L 19.47 34.22 C 19.47 34.562 19.334 34.89 19.092 35.132 C 18.85 35.374 18.522 35.51 18.18 35.51 L 4.3 35.51 C 3.961 35.513 3.635 35.382 3.392 35.146 C 3.149 34.911 3.008 34.589 3 34.25 Z"
            fill="#ffe06e"
            stroke-width="1"/>
        <path
            id="path_29"
            d="M 16.74 63.35 L 5.7 63.35 C 5.435 63.35 5.18 63.245 4.993 63.057 C 4.805 62.87 4.7 62.615 4.7 62.35 C 4.7 62.085 4.805 61.83 4.993 61.643 C 5.18 61.455 5.435 61.35 5.7 61.35 L 16.7 61.35 C 16.965 61.35 17.22 61.455 17.407 61.643 C 17.595 61.83 17.7 62.085 17.7 62.35 C 17.7 62.615 17.595 62.87 17.407 63.057 C 17.22 63.245 16.965 63.35 16.7 63.35 Z M 16.74 67.91 L 5.7 67.91 C 5.435 67.91 5.18 67.805 4.993 67.617 C 4.805 67.43 4.7 67.175 4.7 66.91 C 4.7 66.645 4.805 66.39 4.993 66.203 C 5.18 66.015 5.435 65.91 5.7 65.91 L 16.7 65.91 C 16.965 65.91 17.22 66.015 17.407 66.203 C 17.595 66.39 17.7 66.645 17.7 66.91 C 17.7 67.175 17.595 67.43 17.407 67.617 C 17.22 67.805 16.965 67.91 16.7 67.91 Z M 16.74 72.46 L 5.7 72.46 C 5.435 72.46 5.18 72.355 4.993 72.167 C 4.805 71.98 4.7 71.725 4.7 71.46 C 4.7 71.195 4.805 70.94 4.993 70.753 C 5.18 70.565 5.435 70.46 5.7 70.46 L 16.7 70.46 C 16.965 70.46 17.22 70.565 17.407 70.753 C 17.595 70.94 17.7 71.195 17.7 71.46 C 17.7 71.725 17.595 71.98 17.407 72.167 C 17.22 72.355 16.965 72.46 16.7 72.46 Z M 5.34 28.58 L 5.14 28.58 C 4.875 28.58 4.62 28.475 4.433 28.287 C 4.245 28.1 4.14 27.845 4.14 27.58 C 4.14 27.315 4.245 27.06 4.433 26.873 C 4.62 26.685 4.875 26.58 5.14 26.58 L 5.34 26.58 C 5.605 26.58 5.86 26.685 6.047 26.873 C 6.235 27.06 6.34 27.315 6.34 27.58 C 6.34 27.845 6.235 28.1 6.047 28.287 C 5.86 28.475 5.605 28.58 5.34 28.58 Z M 11.11 28.58 L 10.92 28.58 C 10.655 28.58 10.4 28.475 10.213 28.287 C 10.025 28.1 9.92 27.845 9.92 27.58 C 9.92 27.315 10.025 27.06 10.213 26.873 C 10.4 26.685 10.655 26.58 10.92 26.58 L 11.11 26.58 C 11.375 26.58 11.63 26.685 11.817 26.873 C 12.005 27.06 12.11 27.315 12.11 27.58 C 12.11 27.845 12.005 28.1 11.817 28.287 C 11.63 28.475 11.375 28.58 11.11 28.58 Z M 17.3 28.58 L 17.1 28.58 C 16.835 28.58 16.58 28.475 16.393 28.287 C 16.205 28.1 16.1 27.845 16.1 27.58 C 16.1 27.315 16.205 27.06 16.393 26.873 C 16.58 26.685 16.835 26.58 17.1 26.58 L 17.3 26.58 C 17.565 26.58 17.82 26.685 18.007 26.873 C 18.195 27.06 18.3 27.315 18.3 27.58 C 18.3 27.845 18.195 28.1 18.007 28.287 C 17.82 28.475 17.565 28.58 17.3 28.58 Z"
            fill="#ffffff"
            stroke-width="1"/>
    </g>
</svg>
