<svg
    xmlns="http://www.w3.org/2000/svg"
    viewBox="0 0 497 497"
    id="vector">
    <path
        id="path"
        d="M 384.5 30 L 67.5 30 L 62.5 487 L 399.5 482 L 399.5 426.323 L 393.021 368.238 L 399.5 325.586 L 399.5 45 C 399.5 36.716 392.784 30 384.5 30 Z"
        fill="#cde2ff"
        stroke-width="1"/>
    <path
        id="path_1"
        d="M 369.657 467 L 369.5 452 L 67.5 30 C 59.216 30 52.5 36.716 52.5 45 L 52.5 482 C 52.5 490.284 59.216 497 67.5 497 L 384.5 497 C 392.784 497 399.5 490.284 399.5 482 L 354.657 482 C 362.942 482 369.657 475.284 369.657 467 Z M 399.5 325.586 L 369.5 239.354 L 328.286 221.771 L 399.5 426.323 Z"
        fill="#9ec8fc"
        stroke-width="1"/>
    <path
        id="path_2"
        d="M 354.5 0 L 37.5 0 L 32.5 457 L 369.5 452 L 369.5 340.153 L 356.694 233.5 L 369.5 192.751 L 369.5 15 C 369.5 6.716 362.784 0 354.5 0 Z"
        fill="#edf6ff"
        stroke-width="1"/>
    <path
        id="path_3"
        d="M 369.5 192.751 L 338.794 154.376 C 334.924 149.492 327.063 152.228 327.063 158.46 L 327.063 214.543 C 327.063 217.004 327.476 219.447 328.285 221.771 L 369.5 340.153 Z"
        fill="#cde2ff"
        stroke-width="1"/>
    <g id="group">
        <path
            id="path_4"
            d="M 309.5 414.5 L 82.5 414.5 C 78.358 414.5 75 411.142 75 407 C 75 402.858 78.358 399.5 82.5 399.5 L 309.5 399.5 C 313.642 399.5 317 402.858 317 407 C 317 411.142 313.642 414.5 309.5 414.5 Z M 309.5 369.5 L 82.5 369.5 C 78.358 369.5 75 366.142 75 362 C 75 357.858 78.358 354.5 82.5 354.5 L 309.5 354.5 C 313.642 354.5 317 357.858 317 362 C 317 366.142 313.642 369.5 309.5 369.5 Z M 309.5 324.5 L 82.5 324.5 C 78.358 324.5 75 321.142 75 317 C 75 312.858 78.358 309.5 82.5 309.5 L 309.5 309.5 C 313.642 309.5 317 312.858 317 317 C 317 321.142 313.642 324.5 309.5 324.5 Z M 289.5 279.5 L 82.5 279.5 C 78.358 279.5 75 276.142 75 272 C 75 267.858 78.358 264.5 82.5 264.5 L 289.5 264.5 C 293.642 264.5 297 267.858 297 272 C 297 276.142 293.642 279.5 289.5 279.5 Z M 309.5 234.5 L 82.5 234.5 C 78.358 234.5 75 231.142 75 227 C 75 222.858 78.358 219.5 82.5 219.5 L 309.5 219.5 C 313.642 219.5 317 222.858 317 227 C 317 231.142 313.642 234.5 309.5 234.5 Z M 309.5 189.5 L 82.5 189.5 C 78.358 189.5 75 186.142 75 182 C 75 177.858 78.358 174.5 82.5 174.5 L 309.5 174.5 C 313.642 174.5 317 177.858 317 182 C 317 186.142 313.642 189.5 309.5 189.5 Z M 82.5 144.5 C 78.369 144.5 75.014 141.159 75 137.025 C 74.986 132.883 78.333 129.514 82.475 129.5 L 231.475 129 C 235.647 128.982 238.986 132.333 239 136.475 C 239.014 140.617 235.667 143.986 231.525 144 L 82.525 144.5 L 82.5 144.5 Z M 269.975 69.5 L 122.025 69.5 C 117.883 69.5 114.525 66.142 114.525 62 C 114.525 57.858 117.883 54.5 122.025 54.5 L 269.975 54.5 C 274.117 54.5 277.475 57.858 277.475 62 C 277.475 66.142 274.117 69.5 269.975 69.5 Z"
            fill="#666666"
            stroke-width="1"/>
    </g>
    <path
        id="path_5"
        d="M 37.5 437 L 37.5 0 C 29.216 0 22.5 6.716 22.5 15 L 22.5 452 C 22.5 460.284 29.216 467 37.5 467 L 354.5 467 C 362.784 467 369.5 460.284 369.5 452 L 52.5 452 C 44.216 452 37.5 445.284 37.5 437 Z"
        fill="#cde2ff"
        stroke-width="1"/>
    <path
        id="path_6"
        d="M 353.794 139.376 L 348.794 158.009 L 353.794 179.768 L 374.45 165.446 Z"
        fill="#7e8b96"
        stroke-width="1"/>
    <path
        id="path_7"
        d="M 342.064 143.46 L 342.064 176.721 L 353.795 179.768 L 353.795 139.376 C 349.924 134.492 342.064 137.228 342.064 143.46 Z"
        fill="#5f6c75"
        stroke-width="1"/>
    <path
        id="path_8"
        d="M 374.45 165.446 L 353.794 172.568 L 345.47 196.643 C 345.544 200.439 358.77 208.844 358.77 208.844 L 392.154 189.758 C 391.345 187.434 390.151 185.263 388.623 183.334 Z"
        fill="#e0bba4"
        stroke-width="1"/>
    <path
        id="path_9"
        d="M 356.452 202.187 C 355.441 199.284 353.868 195.217 353.794 191.421 L 353.794 172.568 L 342.063 176.721 L 342.063 199.543 C 342.063 202.004 342.476 204.447 343.285 206.771 L 358.769 208.844 Z"
        fill="#d8ab8c"
        stroke-width="1"/>
    <path
        id="path_10"
        d="M 356.452 202.187 L 432.028 439.505 C 433.683 444.257 441.341 444.251 452.23 440.461 C 468.374 434.84 474.013 424.888 474.013 424.888 L 392.153 189.758 Z"
        fill="#ffd064"
        stroke-width="1"/>
    <path
        id="path_11"
        d="M 437.181 433.6 L 356.453 202.187 L 343.287 206.771 L 425.147 441.901 C 427.84 449.637 440.963 452.101 454.458 447.403 C 467.952 442.705 476.708 432.625 474.015 424.888 C 474.015 424.888 469.363 429.03 458.475 432.821 C 447.585 436.612 438.835 438.352 437.181 433.6 Z"
        fill="#ebb044"
        stroke-width="1"/>
</svg>
