<svg
    xmlns="http://www.w3.org/2000/svg"
    viewBox="0 0 497 497"
    id="vector">
    <path
        id="path"
        d="M 16.567 397.6 L 16.567 463.867 C 16.567 482.166 31.401 497 49.7 497 L 447.3 497 C 465.599 497 480.432 482.166 480.432 463.867 L 480.432 397.6 Z"
        fill="#b5dbff"
        stroke-width="1"/>
    <path
        id="path_1"
        d="M 457.433 397.6 L 457.433 463.868 C 457.433 482.166 442.599 497 424.301 497 L 447.301 497 C 465.6 497 480.433 482.166 480.433 463.868 L 480.433 397.6 Z"
        fill="#97d0ff"
        stroke-width="1"/>
    <path
        id="path_2"
        d="M 16.567 132.533 L 16.567 430.733 C 16.567 449.031 31.401 463.865 49.699 463.865 L 447.3 463.865 C 465.599 463.865 480.432 449.031 480.432 430.733 L 480.432 132.533 Z"
        fill="#edf5ff"
        stroke-width="1"/>
    <path
        id="path_3"
        d="M 457.433 132.533 L 457.433 430.733 C 457.433 449.031 442.599 463.865 424.301 463.865 L 447.301 463.865 C 465.6 463.865 480.433 449.031 480.433 430.733 L 480.433 132.533 Z"
        fill="#d5e8fe"
        stroke-width="1"/>
    <path
        id="path_4"
        d="M 480.433 149.1 L 480.433 66.266 C 480.433 47.967 465.599 33.134 447.301 33.134 L 49.7 33.134 C 31.401 33.134 16.568 47.968 16.568 66.266 L 16.568 149.1 Z"
        fill="#ff435b"
        stroke-width="1"/>
    <path
        id="path_5"
        d="M 115.967 73.767 L 99.4 73.767 C 95.258 73.767 91.9 70.409 91.9 66.267 C 91.9 62.125 95.258 58.767 99.4 58.767 L 115.967 58.767 C 120.109 58.767 123.467 62.125 123.467 66.267 C 123.467 70.409 120.109 73.767 115.967 73.767 Z M 165.667 73.767 L 149.1 73.767 C 144.958 73.767 141.6 70.409 141.6 66.267 C 141.6 62.125 144.958 58.767 149.1 58.767 L 165.666 58.767 C 169.808 58.767 173.166 62.125 173.166 66.267 C 173.166 70.409 169.809 73.767 165.667 73.767 Z M 347.9 73.767 L 331.334 73.767 C 327.192 73.767 323.834 70.409 323.834 66.267 C 323.834 62.125 327.192 58.767 331.334 58.767 L 347.9 58.767 C 352.042 58.767 355.4 62.125 355.4 66.267 C 355.4 70.409 352.042 73.767 347.9 73.767 Z M 397.6 73.767 L 381.033 73.767 C 376.891 73.767 373.533 70.409 373.533 66.267 C 373.533 62.125 376.891 58.767 381.033 58.767 L 397.6 58.767 C 401.742 58.767 405.1 62.125 405.1 66.267 C 405.1 70.409 401.742 73.767 397.6 73.767 Z"
        fill="#e3374e"
        stroke-width="1"/>
    <path
        id="path_6"
        d="M 115.967 66.267 C 115.967 75.416 123.384 82.834 132.534 82.834 C 141.684 82.834 149.101 75.417 149.101 66.267 L 149.101 16.567 C 149.1 7.417 141.683 0 132.533 0 C 123.384 0 115.966 7.417 115.966 16.567 L 115.966 66.267 Z M 347.9 66.267 C 347.9 75.416 355.317 82.834 364.467 82.834 C 373.617 82.834 381.034 75.417 381.034 66.267 L 381.034 16.567 C 381.034 7.417 373.617 0 364.467 0 C 355.317 0 347.9 7.417 347.9 16.567 Z"
        fill="#596c76"
        stroke-width="1"/>
    <g id="group">
        <path
            id="path_7"
            d="M 447.3 33.133 L 424.3 33.133 C 442.599 33.133 457.432 47.967 457.432 66.265 L 457.432 149.1 L 480.432 149.1 L 480.432 66.266 C 480.433 47.967 465.599 33.133 447.3 33.133 Z"
            fill="#e3374e"
            stroke-width="1"/>
        <path
            id="path_8"
            d="M 16.567 108.467 L 480.433 108.467 L 480.433 123.467 L 16.567 123.467 Z"
            fill="#e3374e"
            stroke-width="1"/>
    </g>
    <path
        id="path_9"
        d="M 323.05 364.467 L 173.95 364.467 C 169.375 364.467 165.667 360.758 165.667 356.184 L 165.667 335.245 C 165.667 332.673 166.266 330.137 167.416 327.836 L 180.485 301.698 C 181.635 299.398 182.234 296.861 182.234 294.289 L 182.234 265.066 C 182.234 228.468 211.903 198.799 248.501 198.799 C 285.099 198.799 314.768 228.468 314.768 265.066 L 314.768 294.289 C 314.768 296.861 315.367 299.397 316.517 301.698 L 329.586 327.836 C 330.736 330.136 331.335 332.673 331.335 335.245 L 331.335 356.184 C 331.334 360.758 327.625 364.467 323.05 364.467 Z"
        fill="#ffda2d"
        stroke-width="1"/>
    <g id="group_1">
        <path
            id="path_10"
            d="M 329.585 327.836 L 316.516 301.698 C 315.366 299.398 314.767 296.861 314.767 294.289 L 314.767 265.066 C 314.767 228.468 285.098 198.799 248.5 198.799 C 244.575 198.799 240.737 199.16 237 199.814 C 268.113 205.261 291.767 232.392 291.767 265.066 L 291.767 294.289 C 291.767 296.861 292.366 299.397 293.516 301.698 L 306.585 327.836 C 307.735 330.136 308.334 332.673 308.334 335.245 L 308.334 356.184 C 308.334 360.759 304.625 364.467 300.051 364.467 L 323.051 364.467 C 327.626 364.467 331.334 360.758 331.334 356.184 L 331.334 335.245 C 331.334 332.673 330.735 330.136 329.585 327.836 Z M 223.894 385.292 C 223.053 390.471 223.875 395.786 226.239 400.47 C 228.604 405.154 232.393 408.971 237.059 411.37 C 241.725 413.769 247.034 414.629 252.219 413.827 C 257.404 413.025 262.204 410.601 265.928 406.904 C 269.651 403.207 272.109 398.424 272.948 393.244 C 273.788 388.065 272.967 382.75 270.602 378.066 C 268.238 373.383 264.449 369.566 259.783 367.167 C 255.117 364.767 249.808 363.907 244.623 364.709 C 239.438 365.511 234.637 367.936 230.914 371.633 C 227.191 375.33 224.733 380.113 223.894 385.292 Z"
            fill="#fdbf00"
            stroke-width="1"/>
        <path
            id="path_11"
            d="M 167.415 327.836 C 166.265 330.136 165.666 332.673 165.666 335.245 L 165.666 338.834 L 331.333 338.834 L 331.333 335.245 C 331.333 332.673 330.734 330.136 329.584 327.836 L 327.583 323.834 L 169.417 323.834 Z"
            fill="#fdbf00"
            stroke-width="1"/>
    </g>
</svg>
