<svg
    xmlns="http://www.w3.org/2000/svg"
    viewBox="0 0 512 512"
    id="vector">
    <path
        id="path_9"
        d="M 448 104 C 448.001 109.368 449.803 114.583 453.117 118.807 C 456.43 123.03 461.067 126.022 466.28 127.3 C 454.489 133.485 444.917 143.197 438.903 155.076 C 432.889 166.955 430.728 180.419 432.723 193.583 C 434.717 206.748 440.77 218.967 450.033 228.531 C 459.296 238.095 471.316 244.536 484.41 246.95 C 473.601 314.479 438.922 375.941 386.71 420.11 C 383.092 413.812 377.831 408.612 371.49 405.07 C 376.56 402.305 380.466 397.802 382.485 392.392 C 384.504 386.981 384.505 381.02 382.486 375.61 C 380.468 370.199 376.562 365.695 371.493 362.93 C 366.423 360.164 360.522 359.32 354.88 360.552 C 349.239 361.783 344.227 365.011 340.771 369.638 C 337.316 374.265 335.643 379.987 336.064 385.746 C 336.484 391.505 338.969 396.924 343.06 401 C 333.68 403.158 325.387 408.628 319.71 416.4 C 305.165 408.117 287.937 405.86 271.748 410.115 C 255.56 414.371 241.67 424.809 233.078 439.174 C 224.486 453.539 221.861 470.715 225.77 486.99 Q 213.785 487.995 201.54 488 C 170.377 488.002 139.756 479.798 112.768 464.217 C 85.779 448.637 63.363 426.221 47.783 399.232 C 32.202 372.244 23.998 341.623 24 310.46 C 23.952 271.715 31.788 233.362 47.029 197.741 C 62.271 162.12 84.602 129.969 112.66 103.25 C 114.439 112.897 119.706 121.561 127.451 127.581 C 135.196 133.602 144.892 136.568 154.68 135.911 C 164.467 135.254 173.68 131.02 180.552 124.019 C 187.423 117.018 191.486 107.728 191.96 97.93 C 202.964 106.743 216.577 111.679 230.673 111.967 C 244.768 112.255 258.571 107.879 269.926 99.523 C 281.281 91.167 289.564 79.289 293.48 65.746 C 297.397 52.202 296.732 37.737 291.59 24.61 Q 300.95 24.01 310.46 24 L 488 24 L 488 86.12 C 483.374 81.977 477.316 79.788 471.111 80.016 C 464.905 80.244 459.025 82.873 454.716 87.345 C 450.407 91.816 447.998 97.79 448 104 Z"
        fill="#7ab355"
        stroke-width="1"/>
    <path
        id="path_10"
        d="M 24 464 L 48 488 L 392 120 Z"
        fill="#699949"
        stroke-width="1"/>
    <path
        id="path_11"
        d="M 422.562 199.457 L 450.96 171.059 L 462.272 182.371 L 433.874 210.769 Z M 445.186 222.084 L 473.584 193.686 L 484.896 204.998 L 456.498 233.396 Z"
        fill="#4f5761"
        stroke-width="1"/>
    <path
        id="path_12"
        d="M 416.124 213.546 C 416.746 207.502 419.639 201.914 424.217 197.919 C 428.794 193.924 434.722 191.812 440.795 192.014 C 446.867 192.215 452.642 194.715 456.945 199.005 C 461.248 203.294 463.765 209.062 463.984 215.134 C 464.204 221.206 462.11 227.14 458.129 231.729 C 454.147 236.319 448.568 239.229 442.526 239.869 Z M 392 192 L 408 192 L 408 233.373 L 392 233.373 Z M 336 248 L 377.373 248 L 377.373 264 L 336 264 Z M 354.281 221.674 L 365.593 210.362 L 394.275 239.044 L 382.963 250.356 Z M 392 278.627 L 408 278.627 L 408 320 L 392 320 Z M 422.627 248 L 464 248 L 464 264 L 422.627 264 Z M 411.24 278.644 L 422.552 267.332 L 445.578 290.358 L 434.266 301.67 Z"
        fill="#68737f"
        stroke-width="1"/>
    <path
        id="path_13"
        d="M 424 280 C 412.184 291.815 390.306 305.349 372.416 294.898 C 367.769 292.118 363.882 288.231 361.102 283.584 C 350.652 265.694 364.185 243.816 376.001 232.001 C 387.817 220.186 409.695 206.651 427.584 217.102 C 432.231 219.882 436.118 223.769 438.898 228.416 C 449.349 246.306 435.815 268.183 423.999 279.999 Z"
        fill="#e04446"
        stroke-width="1"/>
    <path
        id="path_14"
        d="M 438.898 228.416 L 372.416 294.898 C 367.769 292.118 363.882 288.231 361.102 283.584 L 427.584 217.102 C 432.231 219.882 436.118 223.769 438.898 228.416 Z"
        fill="#d6323f"
        stroke-width="1"/>
    <path
        id="path_15"
        d="M 128 103.834 L 144 103.834 L 144 144.001 L 128 144.001 Z M 160 103.834 L 176 103.834 L 176 144.001 L 160 144.001 Z"
        fill="#4f5761"
        stroke-width="1"/>
    <path
        id="path_16"
        d="M 133.382 158.58 C 129.548 153.867 127.642 147.869 128.054 141.808 C 128.466 135.746 131.164 130.061 135.6 125.909 C 140.036 121.758 145.887 119.442 151.963 119.432 C 158.039 119.423 163.897 121.721 168.346 125.859 C 172.795 129.997 175.511 135.674 175.941 141.734 C 176.371 147.795 174.484 153.798 170.664 158.523 Z M 101.06 160.397 L 112.373 149.085 L 141.623 178.336 L 130.311 189.648 Z M 101.054 239.586 L 130.304 210.336 L 141.617 221.647 L 112.366 250.898 Z M 95.432 192 L 136 192 L 136 208 L 95.432 208 Z M 162.302 221.652 L 173.614 210.34 L 202.865 239.591 L 191.553 250.903 Z M 162.309 178.343 L 191.559 149.093 L 202.872 160.405 L 173.621 189.655 Z M 176 192 L 208.568 192 L 208.568 208 L 176 208 Z"
        fill="#68737f"
        stroke-width="1"/>
    <path
        id="path_17"
        d="M 185.94 200 C 185.94 216.71 180.04 241.75 160 247.01 C 154.749 248.33 149.251 248.33 144 247.01 C 123.96 241.75 118.06 216.71 118.06 200 C 118.06 183.29 123.96 158.25 144 152.99 C 149.251 151.67 154.749 151.67 160 152.99 C 180.04 158.25 185.94 183.29 185.94 200 Z"
        fill="#e04446"
        stroke-width="1"/>
    <path
        id="path_18"
        d="M 160 152.99 L 160 247.01 C 154.749 248.33 149.251 248.33 144 247.01 L 144 152.99 C 149.251 151.67 154.749 151.67 160 152.99 Z"
        fill="#d6323f"
        stroke-width="1"/>
</svg>
