<svg
    xmlns="http://www.w3.org/2000/svg"
    viewBox="0 0 60 60"
    id="vector">
    <path
        id="path_25"
        d="M 27.26 14.14 C 28.359 15.634 29.254 17.269 29.92 19 C 30.548 16.59 31.561 14.297 32.92 12.21 L 35.48 15.84 C 33.89 18.61 32.24 23.14 32.03 30.36 L 32 32 L 28 32 L 27.97 30.36 C 27.8 23.53 26.49 20.46 24.89 18.05 Z"
        fill="#8ba820"
        stroke-width="1"/>
    <path
        id="path_26"
        d="M 53.427 2.543 C 53.528 2.515 53.636 2.523 53.731 2.566 C 53.827 2.608 53.905 2.683 53.952 2.777 C 53.999 2.871 54.012 2.978 53.988 3.08 C 53.42 5.513 51.164 13.101 44.539 16.68 C 42.644 17.704 40.42 17.942 38.351 17.341 C 36.282 16.739 34.532 15.347 33.481 13.466 C 32.797 12.224 32.455 10.823 32.49 9.406 C 32.524 7.989 32.935 6.606 33.678 5.4 C 34.422 4.193 35.473 3.205 36.723 2.537 C 44.351 -1.577 47.862 4.039 53.427 2.543 Z M 6.571 5.043 C 6.47 5.015 6.363 5.023 6.267 5.066 C 6.172 5.109 6.094 5.184 6.047 5.277 C 6.001 5.371 5.988 5.478 6.012 5.58 C 6.58 8.012 8.836 15.601 15.461 19.18 C 17.356 20.204 19.58 20.442 21.649 19.841 C 23.718 19.239 25.468 17.847 26.519 15.966 C 27.203 14.724 27.545 13.323 27.51 11.906 C 27.476 10.489 27.065 9.106 26.322 7.9 C 25.578 6.693 24.527 5.705 23.277 5.037 C 15.648 0.923 12.138 6.54 6.571 5.043 Z"
        fill="#9cc824"
        stroke-width="1"/>
    <path
        id="path_27"
        d="M 32 43.851 C 30.674 44.05 29.326 44.05 28 43.851 L 15 41 L 16.2 36.75 C 16.463 35.95 16.972 35.253 17.655 34.76 C 18.337 34.266 19.158 34 20 34 C 20.114 33.997 20.227 34.003 20.34 34.02 C 20.619 33.417 21.065 32.906 21.625 32.549 C 22.185 32.191 22.836 32 23.5 32 C 24.087 32.001 24.665 32.149 25.18 32.43 C 25.927 31.423 26.971 30.675 28.164 30.291 C 29.358 29.907 30.642 29.907 31.836 30.291 C 33.029 30.675 34.073 31.423 34.82 32.43 C 35.335 32.149 35.913 32.001 36.5 32 C 37.164 32 37.815 32.191 38.375 32.549 C 38.935 32.906 39.381 33.417 39.66 34.02 C 39.773 34.003 39.886 33.997 40 34 C 40.842 34 41.663 34.266 42.345 34.76 C 43.028 35.253 43.537 35.95 43.8 36.75 L 45 41 Z"
        fill="#63442a"
        stroke-width="1"/>
    <path
        id="path_28"
        d="M 28 43.34 L 28 58 C 28 58.265 27.895 58.52 27.707 58.707 C 27.52 58.895 27.265 59 27 59 L 20 59 C 19.735 59 19.48 58.895 19.293 58.707 C 19.105 58.52 19 58.265 19 58 L 19 52.08 C 19 51.464 18.818 50.862 18.476 50.35 C 18.135 49.837 17.649 49.437 17.081 49.2 L 8.533 45.64 C 7.539 45.224 6.699 44.507 6.133 43.59 L 1.284 34.92 C 1.025 34.497 0.939 33.99 1.046 33.505 C 1.152 33.021 1.442 32.596 1.854 32.32 C 2.167 32.108 2.536 31.996 2.914 32 C 3.202 32.001 3.486 32.066 3.745 32.19 C 4.005 32.315 4.233 32.496 4.414 32.72 L 9.6 39.5 C 9.866 39.826 10.231 40.057 10.64 40.158 L 12.009 40.498 C 11.518 40.375 11.088 40.077 10.802 39.66 C 10.515 39.243 10.39 38.735 10.452 38.232 C 10.513 37.73 10.756 37.267 11.135 36.931 C 11.514 36.595 12.003 36.409 12.509 36.408 C 12.671 36.408 12.832 36.428 12.989 36.468 L 24.748 39.228 C 25.674 39.447 26.499 39.973 27.089 40.719 C 27.679 41.465 28 42.389 28 43.34 Z M 32 43.34 L 32 58 C 32 58.265 32.105 58.52 32.293 58.707 C 32.48 58.895 32.735 59 33 59 L 40 59 C 40.265 59 40.52 58.895 40.707 58.707 C 40.895 58.52 41 58.265 41 58 L 41 52.08 C 41 51.464 41.182 50.862 41.524 50.35 C 41.865 49.837 42.351 49.437 42.919 49.2 L 51.468 45.64 C 52.462 45.224 53.302 44.507 53.868 43.59 L 58.717 34.92 C 58.976 34.497 59.062 33.99 58.955 33.505 C 58.849 33.021 58.559 32.596 58.147 32.32 C 57.834 32.108 57.465 31.996 57.087 32 C 56.799 32.001 56.515 32.066 56.256 32.19 C 55.996 32.315 55.768 32.496 55.587 32.72 L 50.4 39.5 C 50.134 39.826 49.769 40.057 49.36 40.158 L 47.991 40.498 C 48.482 40.375 48.912 40.077 49.198 39.66 C 49.485 39.243 49.61 38.735 49.548 38.232 C 49.487 37.73 49.244 37.267 48.865 36.931 C 48.486 36.595 47.997 36.409 47.491 36.408 C 47.329 36.408 47.168 36.428 47.011 36.468 L 35.249 39.23 C 34.324 39.45 33.5 39.975 32.911 40.721 C 32.321 41.466 32 42.39 32 43.34 Z"
        fill="#efbba3"
        stroke-width="1"/>
    <path
        id="path_29"
        d="M 22 41.77 C 21.999 41.966 21.938 42.156 21.826 42.316 C 21.714 42.477 21.556 42.599 21.372 42.668 C 21.189 42.736 20.99 42.747 20.8 42.7 L 12.01 40.5 C 11.537 40.382 11.121 40.1 10.835 39.705 C 10.55 39.31 10.413 38.826 10.45 38.34 L 21.25 40.83 C 21.463 40.878 21.653 40.998 21.79 41.169 C 21.926 41.339 22 41.552 22 41.77 Z M 38 41.77 C 38.001 41.966 38.062 42.156 38.174 42.316 C 38.286 42.477 38.444 42.599 38.628 42.668 C 38.811 42.736 39.01 42.747 39.2 42.7 L 47.99 40.5 C 48.463 40.382 48.879 40.1 49.165 39.705 C 49.45 39.31 49.587 38.826 49.55 38.34 L 38.75 40.83 C 38.537 40.878 38.347 40.998 38.21 41.169 C 38.074 41.339 38 41.552 38 41.77 Z"
        fill="#dda18a"
        stroke-width="1"/>
</svg>
