<svg
    xmlns="http://www.w3.org/2000/svg"
    viewBox="0 0 340 340"
    id="vector">
    <path
        id="path"
        d="M 283.948 101.4 C 287.383 99.812 290.252 97.21 292.167 93.947 C 294.083 90.683 294.956 86.91 294.669 83.137 C 291.723 43 273.723 17.318 268.7 10.866 C 268.501 10.607 268.23 10.414 267.921 10.311 C 267.611 10.208 267.278 10.2 266.964 10.287 C 266.65 10.375 266.369 10.555 266.158 10.803 C 254.414 24.703 231.914 34.257 225.185 36.903 C 224.936 37.001 224.727 37.183 224.596 37.416 C 224.464 37.65 224.416 37.922 224.461 38.186 C 224.506 38.451 224.64 38.692 224.841 38.869 C 226.656 40.503 228.014 42.582 228.78 44.9 C 232.829 56.669 224.666 67.374 212.086 67.639 C 211.454 67.635 210.822 67.599 210.193 67.53 C 209.971 67.507 209.748 67.549 209.549 67.649 C 209.35 67.749 209.183 67.904 209.07 68.096 C 208.956 68.287 208.899 68.507 208.906 68.73 C 209.043 71.531 208.717 74.335 207.943 77.03 C 206.727 81.034 204.56 84.685 201.629 87.671 C 198.698 90.657 195.088 92.891 191.107 94.181 C 170.266 101.26 157.837 87.863 157.837 87.863 C 37.8 129.508 56.775 260.572 56.775 260.572 C 60.184 290.582 56.775 308.208 56.775 308.208 C 84.114 299.308 134.705 294.34 160.994 292.252 C 175.748 291.198 190.17 287.358 203.494 280.935 C 270.802 247.81 282.429 191.727 284.276 178.354 C 284.333 177.923 284.256 177.485 284.054 177.1 C 283.853 176.715 283.537 176.401 283.151 176.203 C 282.764 176.004 282.325 175.93 281.895 175.99 C 266.125 178.084 254.906 158.89 266.084 146.269 C 268.572 143.548 271.554 141.324 274.873 139.718 C 275.245 139.539 275.556 139.253 275.767 138.898 C 275.977 138.543 276.079 138.133 276.058 137.721 C 276.037 137.309 275.895 136.911 275.65 136.579 C 272.216 131.927 271.136 126.032 270.82 122.07 C 270.44 118.153 271.25 114.211 273.142 110.761 C 275.677 106.588 279.457 103.314 283.948 101.4 Z M 223.117 231.562 C 222.556 236.092 220.223 240.221 216.63 243.037 C 213.037 245.853 208.471 247.133 203.938 246.596 C 199.405 246.058 195.265 243.745 192.43 240.166 C 189.596 236.588 188.293 232.028 188.808 227.492 C 188.847 227.163 188.916 226.845 188.973 226.523 C 186.349 225.075 184.291 222.78 183.135 220.015 C 181.979 217.25 181.792 214.173 182.605 211.288 C 183.418 208.403 185.183 205.877 187.613 204.122 C 190.042 202.366 192.996 201.484 195.99 201.619 C 198.984 201.753 201.846 202.897 204.108 204.863 C 206.371 206.829 207.902 209.504 208.453 212.45 C 212.904 213.097 216.931 215.457 219.669 219.026 C 222.407 222.594 223.645 227.095 223.117 231.562 Z"
        fill="#abd37d"
        stroke-width="1"/>
    <path
        id="path_1"
        d="M 54.938 329.727 C 52.574 329.546 50.341 328.565 48.608 326.948 C 46.874 325.33 45.742 323.17 45.398 320.824 C 45.054 318.478 45.519 316.084 46.715 314.037 C 60.836 289.8 98.557 228.61 141.1 189.129 C 166.404 165.799 189.943 140.625 211.524 113.814 C 211.815 113.445 212.234 113.198 212.698 113.123 C 213.162 113.048 213.637 113.15 214.03 113.409 C 214.422 113.668 214.703 114.065 214.816 114.521 C 214.93 114.977 214.868 115.459 214.643 115.872 C 200.942 140.746 183.943 163.655 164.107 183.977 C 153.721 194.622 143.684 205.595 134.251 217.093 C 113.3 242.627 82.031 284.28 65.681 323.287 C 64.84 325.309 63.388 327.02 61.529 328.178 C 59.67 329.337 57.495 329.887 55.309 329.752 C 55.186 329.745 55.062 329.736 54.938 329.727 Z"
        fill="#769344"
        stroke-width="1"/>

    <path
        id="path_8"
        d="M 96.5 260.774 C 96.5 260.774 127.286 251.694 153.658 249.937 C 153.95 249.919 154.225 249.794 154.431 249.587 C 154.637 249.379 154.759 249.102 154.774 248.81 C 154.789 248.518 154.696 248.23 154.512 248.003 C 154.329 247.775 154.068 247.623 153.779 247.575 C 137.575 244.849 121.104 244.065 104.714 245.24 Z M 114.591 224.2 C 114.591 224.2 116.101 200.17 115.268 186.689 C 115.254 186.505 115.308 186.323 115.418 186.175 C 115.529 186.028 115.689 185.925 115.869 185.887 C 116.049 185.848 116.237 185.876 116.398 185.965 C 116.56 186.054 116.683 186.199 116.746 186.372 C 119.361 193.639 123.361 206.393 122.854 215.192 Z M 149.562 194.616 C 149.562 194.616 160.084 191.446 184.806 190.899 C 185.064 190.896 185.313 190.799 185.505 190.627 C 185.697 190.455 185.821 190.219 185.853 189.963 C 185.885 189.707 185.823 189.448 185.679 189.234 C 185.535 189.02 185.317 188.865 185.068 188.799 C 176.791 186.599 163.375 183.493 156.299 184.347 Z M 172.586 162.072 C 172.586 162.072 176.466 144.28 177.319 132.507 C 177.336 132.246 177.446 132 177.629 131.813 C 177.811 131.625 178.055 131.509 178.315 131.485 C 178.576 131.461 178.836 131.531 179.05 131.681 C 179.264 131.832 179.417 132.054 179.482 132.307 C 180.927 138.09 181.803 144 182.099 149.953 Z"
        fill="#769344"
        stroke-width="1"/>
</svg>
