<svg
    xmlns="http://www.w3.org/2000/svg"
    viewBox="0 0 504 504"
    id="vector">
    <path
        id="path"
        d="M 339.772 0 C 339.772 0 384.308 108.954 193.435 182.138 C 89.719 221.893 10.059 323.789 105.173 481.193 C 113.05 410.836 146.826 255.708 292.061 220.309 C 292.061 220.309 156.885 270.855 144.944 499.656 C 214.403 509.408 377.305 515.961 425.67 374.594 C 489.536 187.817 339.772 0 339.772 0 Z"
        fill="#3a7f0d"
        stroke-width="1"/>
    <path
        id="path_1"
        d="M 145.007 498.704 C 292.463 439.855 399.755 301.994 414.563 137.421 C 384.418 56.107 339.772 0 339.772 0 C 339.772 0 384.308 108.954 193.435 182.138 C 89.719 221.893 10.059 323.789 105.173 481.193 C 113.05 410.836 146.826 255.708 292.061 220.309 C 292.053 220.31 157.279 270.73 145.007 498.704 Z"
        fill="#49a010"
        stroke-width="1"/>
    <path
        id="path_2"
        d="M 90.459 158.2 C 86.804 158.2 83.296 159.653 80.712 162.238 C 78.127 164.822 76.674 168.33 76.674 171.985 C 76.674 175.64 78.127 179.148 80.712 181.732 C 83.296 184.317 86.804 185.77 90.459 185.77 C 94.114 185.77 97.622 184.317 100.206 181.732 C 102.791 179.148 104.244 175.64 104.244 171.985 C 104.244 168.33 102.791 164.822 100.206 162.238 C 97.622 159.653 94.114 158.2 90.459 158.2 Z"
        fill="#3a7f0d"
        stroke-width="1"/>
    <g id="group">
        <path
            id="path_3"
            d="M 133.782 148.354 C 131.172 148.354 128.666 149.392 126.82 151.238 C 124.974 153.084 123.936 155.59 123.936 158.2 C 123.936 160.81 124.974 163.316 126.82 165.162 C 128.666 167.008 131.172 168.046 133.782 168.046 C 136.392 168.046 138.898 167.008 140.744 165.162 C 142.59 163.316 143.628 160.81 143.628 158.2 C 143.628 155.59 142.59 153.084 140.744 151.238 C 138.898 149.392 136.392 148.354 133.782 148.354 Z M 124.921 40.047 C 119.724 40.047 114.657 41.693 110.453 44.748 C 106.248 47.803 103.117 52.113 101.511 57.056 C 99.905 61.999 99.905 67.325 101.511 72.268 C 103.117 77.211 106.248 81.521 110.453 84.576 C 114.657 87.631 119.724 89.277 124.921 89.277 C 130.118 89.277 135.185 87.631 139.389 84.576 C 143.594 81.521 146.725 77.211 148.331 72.268 C 149.937 67.325 149.937 61.999 148.331 57.056 C 146.725 52.113 143.594 47.803 139.389 44.748 C 135.185 41.693 130.118 40.047 124.921 40.047 Z M 200.736 112.908 C 199.073 112.908 197.452 113.435 196.106 114.412 C 194.76 115.39 193.758 116.769 193.245 118.351 C 192.731 119.933 192.731 121.637 193.245 123.219 C 193.758 124.801 194.76 126.18 196.106 127.158 C 197.452 128.135 199.073 128.662 200.736 128.662 C 202.399 128.662 204.02 128.135 205.366 127.158 C 206.712 126.18 207.714 124.801 208.227 123.219 C 208.741 121.637 208.741 119.933 208.227 118.351 C 207.714 116.769 206.712 115.39 205.366 114.412 C 204.02 113.435 202.399 112.908 200.736 112.908 Z M 266.713 53.831 C 260.709 53.831 254.945 56.219 250.7 60.464 C 246.455 64.709 244.067 70.473 244.067 76.477 C 244.067 82.481 246.455 88.245 250.7 92.49 C 254.945 96.735 260.709 99.123 266.713 99.123 C 272.717 99.123 278.481 96.735 282.726 92.49 C 286.971 88.245 289.359 82.481 289.359 76.477 C 289.359 70.473 286.971 64.709 282.726 60.464 C 278.481 56.219 272.717 53.831 266.713 53.831 Z"
            fill="#3a7f0d"
            stroke-width="1"/>
    </g>
</svg>
