<svg
    xmlns="http://www.w3.org/2000/svg"
    viewBox="0 0 497 497"
    id="vector">
    <path
        id="path"
        d="M 43.5 497 C 43.5 496.668 104.546 444.85 248.5 444.85 C 388.329 444.85 453.5 496.668 453.5 497 Z"
        fill="#f6cc90"
        stroke-width="1"/>
    <path
        id="path_1"
        d="M 248.5 444.85 C 239.57 444.85 230.96 445.05 222.662 445.425 C 345.163 451.082 402.5 496.688 402.5 497 L 453.5 497 C 453.5 496.668 388.329 444.85 248.5 444.85 Z"
        fill="#f0c17f"
        stroke-width="1"/>
    <path
        id="path_2"
        d="M 341.592 84.041 C 324.912 132.423 279.966 140.749 279.966 140.749 C 279.966 140.749 250.183 105.09 266.429 57.965 C 283.542 8.325 328.489 0 328.489 0 C 328.489 0 358.489 35.03 341.592 84.041 Z"
        fill="#c5e866"
        stroke-width="1"/>
    <path
        id="path_3"
        d="M 328.489 0 C 328.489 0 316.61 2.202 302.741 11.084 C 310.362 25.14 319.808 51.508 308.593 84.04 C 300.524 107.445 285.841 121.475 272.831 129.724 C 276.648 136.77 279.967 140.747 279.967 140.747 C 279.967 140.747 324.914 132.422 341.593 84.039 C 358.489 35.03 328.489 0 328.489 0 Z"
        fill="#b2d94b"
        stroke-width="1"/>
    <path
        id="path_4"
        d="M 246.551 255.295 C 244.976 255.295 243.44 254.8 242.163 253.879 C 240.885 252.958 239.93 251.657 239.432 250.163 C 238.935 248.669 238.921 247.055 239.392 245.552 C 241.229 239.682 284.64 101.197 305.789 49.335 C 306.286 48.116 307.095 47.049 308.135 46.242 C 309.175 45.435 310.409 44.915 311.713 44.736 C 313.018 44.557 314.346 44.725 315.565 45.222 C 316.784 45.719 317.851 46.528 318.658 47.568 C 319.466 48.608 319.985 49.843 320.164 51.147 C 320.342 52.451 320.175 53.78 319.677 54.999 C 298.766 106.278 254.154 248.602 253.705 250.034 C 253.228 251.558 252.277 252.891 250.99 253.837 C 249.704 254.783 248.148 255.294 246.551 255.295 Z"
        fill="#6c8a13"
        stroke-width="1"/>
    <path
        id="path_5"
        d="M 246.549 477.174 C 244.561 477.174 242.652 476.383 241.246 474.977 C 239.84 473.571 239.049 471.662 239.049 469.674 L 239.049 244.236 C 239.049 240.094 242.406 236.736 246.549 236.736 C 250.692 236.736 254.049 240.094 254.049 244.236 L 254.049 469.674 C 254.049 471.662 253.258 473.571 251.852 474.977 C 250.446 476.383 248.537 477.174 246.549 477.174 Z"
        fill="#6c8a13"
        stroke-width="1"/>
    <path
        id="path_6"
        d="M 296.779 311.495 C 269.378 315.389 249.206 309.792 249.206 309.792 C 249.206 309.792 231.76 239.787 286.279 185.095 C 343.706 127.486 412.037 146.446 412.037 146.446 C 412.037 146.446 427.026 203.586 387.306 256.685"
        fill="#9cc042"
        stroke-width="1"/>
    <path
        id="path_7"
        d="M 412.036 146.447 C 412.036 146.447 393.714 141.366 368.073 144.462 C 374.998 145.33 379.036 146.447 379.036 146.447 C 379.036 146.447 394.025 203.587 354.305 256.686 L 263.778 311.496 C 262.776 311.638 261.786 311.764 260.804 311.882 C 269.346 312.935 282.008 313.595 296.778 311.496 L 387.305 256.686 C 427.026 203.586 412.036 146.447 412.036 146.447 Z"
        fill="#85aa18"
        stroke-width="1"/>
    <path
        id="path_8"
        d="M 183.857 274.782 C 232.493 313.114 224.194 368.058 224.194 368.058 C 224.194 368.058 171.68 388.155 124.308 350.818 C 74.409 311.49 82.708 256.547 82.708 256.547 C 82.708 256.547 134.59 235.952 183.857 274.782 Z"
        fill="#c5e866"
        stroke-width="1"/>
    <path
        id="path_9"
        d="M 128.085 195.723 C 177.053 258.114 247.138 247.385 247.138 247.385 C 247.138 247.385 272.707 179.938 225.011 119.167 C 174.771 55.156 104.686 65.884 104.686 65.884 C 104.686 65.884 78.481 132.522 128.085 195.723 Z"
        fill="#9cc042"
        stroke-width="1"/>
    <path
        id="path_10"
        d="M 246.549 459.218 C 244.561 459.218 242.652 458.427 241.246 457.021 C 239.84 455.615 239.049 453.706 239.049 451.718 C 239.049 408.145 222.946 370.943 191.188 341.146 C 167.407 318.833 143.606 309.412 143.369 309.32 C 142.142 308.842 141.063 308.05 140.239 307.023 C 139.416 305.996 138.877 304.77 138.677 303.469 C 138.478 302.168 138.624 300.837 139.102 299.61 C 139.58 298.383 140.372 297.304 141.399 296.48 C 142.426 295.657 143.652 295.118 144.953 294.918 C 146.254 294.719 147.585 294.865 148.812 295.343 C 149.893 295.764 175.577 305.93 201.452 330.208 C 225.447 352.721 254.05 392.078 254.05 451.719 C 254.049 453.707 253.258 455.616 251.852 457.022 C 250.446 458.427 248.537 459.218 246.549 459.218 Z"
        fill="#6c8a13"
        stroke-width="1"/>
    <path
        id="path_11"
        d="M 374.641 339.78 C 332.622 368.832 291.501 348.814 291.501 348.814 C 291.501 348.814 288.58 302.385 329.508 274.088 C 372.619 244.282 413.739 264.3 413.739 264.3 C 413.739 264.3 417.206 310.352 374.641 339.78 Z"
        fill="#c5e866"
        stroke-width="1"/>
    <path
        id="path_12"
        d="M 413.739 264.3 C 413.739 264.3 392.305 253.87 364.163 259.284 C 374.429 261.229 380.739 264.3 380.739 264.3 C 380.739 264.3 384.205 310.351 341.64 339.78 C 330.247 347.657 318.923 351.921 308.464 353.961 C 324.331 356.973 349.32 357.286 374.64 339.78 C 417.206 310.352 413.739 264.3 413.739 264.3 Z"
        fill="#b2d94b"
        stroke-width="1"/>
    <path
        id="path_13"
        d="M 246.543 459.218 C 244.616 459.217 242.763 458.473 241.369 457.142 C 239.976 455.812 239.147 453.994 239.057 452.07 C 239.006 450.974 237.95 424.854 251.104 392.561 C 263.205 362.853 290.147 322.079 349.78 296.531 C 351.237 295.901 352.856 295.75 354.404 296.099 C 355.952 296.448 357.35 297.279 358.396 298.473 C 359.442 299.666 360.082 301.161 360.225 302.742 C 360.368 304.322 360.005 305.908 359.19 307.269 C 358.374 308.631 357.148 309.699 355.687 310.319 C 311.569 329.22 281.056 358.795 264.997 398.22 C 253.076 427.485 254.031 451.132 254.043 451.367 C 254.107 452.723 253.801 454.07 253.159 455.266 C 252.517 456.462 251.562 457.461 250.397 458.157 C 249.232 458.853 247.9 459.219 246.543 459.218 Z M 244.006 251.788 C 242.621 251.789 241.262 251.406 240.081 250.682 C 238.9 249.958 237.943 248.921 237.315 247.686 C 208.633 191.291 160.163 142.118 159.676 141.627 C 158.299 140.211 157.535 138.306 157.553 136.331 C 157.57 134.355 158.368 132.465 159.77 131.073 C 161.172 129.682 163.069 128.9 165.045 128.898 C 167.02 128.896 168.919 129.674 170.324 131.063 C 172.377 133.132 220.947 182.416 250.685 240.886 C 251.463 242.416 251.693 244.168 251.335 245.847 C 250.978 247.526 250.055 249.033 248.721 250.114 C 247.388 251.195 245.723 251.786 244.006 251.788 Z M 248.906 316.946 C 247.083 316.944 245.322 316.278 243.955 315.073 C 242.587 313.868 241.704 312.205 241.473 310.397 C 241.242 308.589 241.677 306.758 242.697 305.247 C 244.763 302.187 293.985 229.916 353.874 195.071 C 355.243 194.269 356.832 193.921 358.411 194.079 C 359.99 194.236 361.478 194.891 362.662 195.948 C 363.845 197.005 364.663 198.411 364.997 199.962 C 365.331 201.513 365.165 203.131 364.522 204.581 C 363.878 206.032 362.791 207.241 361.417 208.035 C 304.466 241.172 255.615 312.92 255.129 313.64 C 254.443 314.659 253.516 315.494 252.431 316.07 C 251.345 316.647 250.135 316.948 248.906 316.946 Z"
        fill="#6c8a13"
        stroke-width="1"/>
</svg>
